:SAMPLES-PER-SECOND 30
:FULLY-SPECIFIED
:DEGREES
355
root  70.0245 39.8919 -6.76422 -25.9892 -82.4565 22.2601
RightUpLeg  -5.66277 -16.9385 -11.0202
RightLeg  14.4187 -1.02258 2.50211
RightFoot  -2.10535 -0.365468 4.34398
RightToes  -1.16417e-010 0 -3.6325e-017
Spine  20.2437 -1.72487 9.27438
Spine1  2.57881 -0.737993 2.32521
HEad  -19.0825 -0.504013 -10.731
LeftShoulder1  9.4503 -17.1956 -39.4128
LeftArm  -42.1361 -52.5895 -25.5009
LeftForeArm  121.654 -81.625 -76.3937
LeftHand  -0.244104 0.0205437 5.32207
RightShoulder  4.41233 10.847 24.5677
RightArm  -29.6025 59.3086 26.9636
RightForeArm  10.2355 38.7331 8.37957
RightHand  -2.93555 6.15436 -29.2377
LeftUpLeg  -4.32182 8.31518 6.25871
LeftLeg  6.16631 9.50203 -2.40427
LeftFoot  3.86703 0.640208 -4.97054
LeftToes  -2.09216e-011 1.96776e-011 -5.83545e-012
356
root  69.8958 39.9095 -6.79551 -19.8064 -80.4448 16.0638
RightUpLeg  -4.74765 -17.2738 -11.2595
RightLeg  14.1819 -2.72499 2.43902
RightFoot  -2.25763 -0.359672 4.33047
RightToes  -1.16417e-010 0 -3.6325e-017
Spine  18.9518 -2.19725 9.78349
Spine1  4.11057 -0.718755 -0.231335
HEad  -19.1466 -1.79591 -8.13217
LeftShoulder1  8.97785 -16.7676 -38.1157
LeftArm  -39.7168 -46.574 -23.0729
LeftForeArm  108.959 -80.9336 -64.1273
LeftHand  -0.244104 0.0205437 5.32207
RightShoulder  5.15979 11.7775 27.7622
RightArm  -27.5333 51.879 26.0225
RightForeArm  10.8124 47.2019 11.3686
RightHand  -3.34963 7.08878 -30.6933
LeftUpLeg  -4.61152 7.65553 6.08398
LeftLeg  6.09376 8.10228 -2.21069
LeftFoot  4.11695 0.645735 -4.94124
LeftToes  -2.09216e-011 1.96776e-011 -5.83545e-012
357
root  69.7619 39.9317 -6.75881 -17.4893 -78.7919 13.833
RightUpLeg  -4.19972 -17.6979 -11.6392
RightLeg  14.2364 -3.9483 2.23436
RightFoot  -2.41252 -0.333123 4.05308
RightToes  -1.16417e-010 0 -3.6325e-017
Spine  18.1282 -1.61402 8.70958
Spine1  4.9586 -0.41436 0.178083
HEad  -18.914 -3.20643 -6.75927
LeftShoulder1  9.40222 -16.6694 -40.329
LeftArm  -35.9683 -39.9207 -19.6208
LeftForeArm  89.1774 -78.7168 -46.6296
LeftHand  -0.244104 0.0205437 5.32207
RightShoulder  5.53483 12.1126 29.4477
RightArm  -23.7331 43.1253 25.7515
RightForeArm  9.95672 53.9446 14.7067
RightHand  -4.06588 8.79468 -32.7296
LeftUpLeg  -4.75455 7.05492 5.70174
LeftLeg  5.8771 7.1644 -2.20542
LeftFoot  4.3314 0.623506 -4.72086
LeftToes  -2.09216e-011 1.96776e-011 -5.83545e-012
358
root  69.6256 39.9523 -6.6416 -16.7368 -77.3338 13.0968
RightUpLeg  -3.6262 -18.3096 -12.2895
RightLeg  14.3681 -4.70867 2.03452
RightFoot  -2.52991 -0.314956 3.86206
RightToes  -1.16417e-010 0 -3.6325e-017
Spine  17.8578 -1.63048 8.27693
Spine1  5.09652 -0.254948 -0.917237
HEad  -18.4065 -3.86689 -4.68063
LeftShoulder1  9.4301 -16.2511 -41.3922
LeftArm  -30.9583 -32.399 -17.4193
LeftForeArm  73.006 -74.7532 -32.3969
LeftHand  -0.244104 0.0205437 5.32207
RightShoulder  6.22238 12.4846 32.9709
RightArm  -19.0452 34.7766 24.564
RightForeArm  11.7705 57.144 16.5666
RightHand  -4.09043 8.79641 -32.8781
LeftUpLeg  -4.6585 6.43299 5.14421
LeftLeg  5.58731 6.46866 -2.2918
LeftFoot  4.42926 0.584009 -4.41027
LeftToes  -2.09216e-011 1.96776e-011 -5.83545e-012
359
root  69.4862 39.9664 -6.45192 -16.2106 -76.0037 12.6263
RightUpLeg  -2.97325 -18.841 -13.0657
RightLeg  14.3092 -5.29742 1.92105
RightFoot  -2.63312 -0.335886 4.17349
RightToes  -1.16417e-010 0 -3.6325e-017
Spine  18.378 -1.78185 7.74976
Spine1  3.9462 -0.251243 -1.86665
HEad  -17.5993 -4.58866 -3.12126
LeftShoulder1  9.49072 -15.8814 -42.5335
LeftArm  -24.9412 -24.2066 -15.7031
LeftForeArm  61.3451 -69.2556 -22.7997
LeftHand  -0.244104 0.0205437 5.32207
RightShoulder  6.7126 12.4022 36.2115
RightArm  -13.4174 26.8385 24.1874
RightForeArm  14.1578 55.9859 15.6196
RightHand  -3.42977 7.16933 -31.2271
LeftUpLeg  -4.58465 5.85982 4.52626
LeftLeg  5.41973 5.84012 -2.37325
LeftFoot  4.34284 0.541204 -4.12051
LeftToes  -2.09216e-011 1.96776e-011 -5.83545e-012
360
root  69.3349 39.9843 -6.21409 -15.5366 -75.1068 12.1765
RightUpLeg  -2.44548 -18.8619 -13.6336
RightLeg  13.9477 -5.94656 1.81378
RightFoot  -2.66729 -0.381919 4.79157
RightToes  -1.16417e-010 0 -3.6325e-017
Spine  18.1541 -1.81778 7.04052
Spine1  3.70955 -0.290372 -2.4275
HEad  -17.293 -5.50051 -2.21719
LeftShoulder1  9.65311 -15.7346 -43.659
LeftArm  -19.024 -16.0654 -14.3996
LeftForeArm  53.8061 -62.5676 -16.3608
LeftHand  -0.244104 0.0205437 5.32207
RightShoulder  6.8674 12.1465 37.8357
RightArm  -7.34057 20.193 25.5225
RightForeArm  12.5058 49.3511 12.2447
RightHand  -2.85058 5.83961 -29.1836
LeftUpLeg  -4.59122 5.47766 4.06939
LeftLeg  5.30239 5.44902 -2.52563
LeftFoot  4.1151 0.504021 -3.89808
LeftToes  -2.09216e-011 1.96776e-011 -5.83545e-012
361
root  69.1651 40.018 -5.94409 -15.2115 -74.956 12.1317
RightUpLeg  -2.07024 -18.3142 -13.9274
RightLeg  13.3277 -6.52223 1.64508
RightFoot  -2.51178 -0.422702 5.24845
RightToes  -1.16417e-010 0 -3.6325e-017
Spine  17.1229 -1.52517 5.93701
Spine1  4.76184 -0.204543 -2.31385
HEad  -17.3617 -6.06528 -1.35247
LeftShoulder1  9.89589 -15.6729 -44.9659
LeftArm  -13.9804 -8.29685 -13.773
LeftForeArm  50.1019 -54.6881 -11.6888
LeftHand  -0.244104 0.0205437 5.32207
RightShoulder  6.79612 11.926 37.9971
RightArm  0.270358 15.6234 28.2945
RightForeArm  6.21502 36.864 7.90644
RightHand  -2.42945 5.0316 -26.8607
LeftUpLeg  -4.35656 5.2992 3.85627
LeftLeg  4.9694 5.5926 -2.86621
LeftFoot  3.8363 0.470442 -3.70586
LeftToes  -2.09216e-011 1.96776e-011 -5.83545e-012
362
root  68.9887 40.0623 -5.64008 -15.6856 -75.3583 12.8016
RightUpLeg  -1.66933 -17.5462 -14.239
RightLeg  12.516 -6.81489 1.50292
RightFoot  -2.18359 -0.456509 5.50887
RightToes  -1.16417e-010 0 -3.6325e-017
Spine  16.2617 -1.13036 4.90638
Spine1  5.76451 0.0450175 -2.30306
HEad  -17.2785 -5.99646 -0.073424
LeftShoulder1  10.0662 -15.4994 -46.2034
LeftArm  -9.42088 -1.43115 -14.0508
LeftForeArm  47.0213 -44.3692 -7.76613
LeftHand  -0.244104 0.0205437 5.32207
RightShoulder  6.9084 12.013 38.451
RightArm  5.34622 12.4601 30.535
RightForeArm  3.37407 20.1673 5.58993
RightHand  -1.54677 2.49936 -22.4178
LeftUpLeg  -3.75282 5.17906 3.67397
LeftLeg  4.37703 6.20313 -3.33405
LeftFoot  3.54804 0.434313 -3.48861
LeftToes  -2.09216e-011 1.96776e-011 -5.83545e-012
